<?xml version="1.0" standalone="no"?>
<!DOCTYPE svg PUBLIC "-//W3C//DTD SVG 1.1//EN" "http://www.w3.org/Graphics/SVG/1.1/DTD/svg11.dtd" >
<svg xmlns="http://www.w3.org/2000/svg">
<metadata>Generated by IcoMoon</metadata>
<defs>
<font id="icomoon" horiz-adv-x="1024">
<font-face units-per-em="1024" ascent="960" descent="-64" />
<missing-glyph horiz-adv-x="1024" />
<glyph unicode="&#x20;" horiz-adv-x="512" d="" />
<glyph unicode="&#xe900;" glyph-name="avatari" horiz-adv-x="801" d="M417.243 427.52c1.057 0 2.114 0 3.382 0 0.423 0 0.845 0 1.268 0 0.634 0 1.48 0 2.114 0 61.929 1.023 112.021 22.101 149.009 62.416 81.374 88.815 67.847 241.069 66.367 255.599-5.284 109.074-58.547 161.258-102.51 185.611-32.761 18.213-71.017 28.036-113.712 28.855h-1.48c-0.211 0-0.634 0-0.845 0h-1.268c-23.461 0-69.538-3.684-113.712-28.036-44.386-24.352-98.494-76.536-103.778-186.429-1.48-14.53-15.007-166.784 66.367-255.599 36.777-40.315 86.869-61.393 148.798-62.416zM258.511 740.419c0 0.614 0.211 1.228 0.211 1.637 6.975 146.729 114.558 162.486 160.634 162.486h0.845c0.423 0 1.057 0 1.691 0 57.067-1.228 154.082-23.739 160.634-162.486 0-0.614 0-1.228 0.211-1.637 0.211-1.432 15.007-140.589-52.206-213.851-26.631-29.059-62.14-43.384-108.851-43.794-0.423 0-0.634 0-1.057 0v0c-0.423 0-0.634 0-1.057 0-46.499 0.409-82.219 14.734-108.64 43.794-67.001 72.853-52.629 212.624-52.418 213.851zM801.337 154.228c0 0.22 0 0.44 0 0.659 0 1.758-0.195 3.516-0.195 5.494-1.171 43.514-3.707 145.265-88.381 177.791-0.585 0.22-1.366 0.44-1.951 0.659-87.991 25.273-161.154 82.412-161.935 83.072-11.901 9.45-28.29 6.153-36.679-7.252s-5.463-31.866 6.438-41.316c3.317-2.637 80.967-63.512 178.128-91.642 45.459-18.241 50.531-72.962 51.897-123.069 0-1.978 0-3.736 0.195-5.494 0.195-19.779-0.976-50.326-4.097-67.908-31.607-20.218-155.496-90.104-343.965-90.104-187.688 0-312.358 70.105-344.16 90.324-3.122 17.581-4.487 48.129-4.097 67.908 0 1.758 0.195 3.516 0.195 5.494 1.366 50.107 6.438 104.828 51.897 123.069 97.161 28.13 174.811 89.225 178.128 91.642 11.901 9.45 14.828 27.91 6.438 41.316s-24.778 16.702-36.679 7.252c-0.78-0.659-73.553-57.799-161.935-83.072-0.78-0.22-1.366-0.44-1.951-0.659-84.674-32.745-87.211-134.497-88.381-177.791 0-1.978 0-3.736-0.195-5.494 0-0.22 0-0.44 0-0.659-0.195-11.428-0.39-70.105 9.95-99.554 1.951-5.714 5.463-10.549 10.145-13.845 5.853-4.395 146.131-105.048 380.839-105.048s374.986 100.873 380.839 105.048c4.487 3.296 8.194 8.131 10.145 13.845 9.755 29.229 9.56 87.906 9.365 99.334z" />
<glyph unicode="&#xe901;" glyph-name="blog" horiz-adv-x="866" d="M777.599 960c46.119 0 84.014-35.601 87.222-80.553l0.22-6.185v-839.511c0-45.748-35.89-83.338-81.207-86.52l-6.236-0.218h-690.133c-46.119 0-84.014 35.601-87.222 80.553l-0.22 6.185-0.024 99.172h74.949l0.025-99.172c0-5.856 4.117-10.777 9.631-12.063l2.861-0.328h690.133c5.904 0 10.864 4.084 12.161 9.553l0.33 2.838v839.511c0 6.832-5.604 12.391-12.492 12.391h-690.133c-5.904 0-10.864-4.084-12.161-9.553l-0.33-2.838-0.025-504.031h-74.949l0.024 504.031c0 45.748 35.89 83.338 81.207 86.52l6.236 0.218h690.133zM636.866 313.453c20.65 0 37.392-16.607 37.392-37.091 0-19.021-14.435-34.698-33.031-36.841l-4.361-0.25h-292.639c-20.65 0-37.392 16.607-37.392 37.091 0 19.021 14.435 34.698 33.031 36.841l4.361 0.25h292.639zM637.691 496.318c20.696 0 37.475-16.644 37.475-37.173 0-19.063-14.468-34.776-33.105-36.923l-4.37-0.25h-292.558c-20.696 0-37.475 16.644-37.475 37.173 0 19.063 14.468 34.776 33.105 36.923l4.37 0.25h292.558zM637.691 679.182c20.696 0 37.475-16.644 37.475-37.173 0-19.063-14.468-34.776-33.105-36.923l-4.37-0.25h-410.318c-20.696 0-37.475 16.644-37.475 37.173 0 19.063 14.468 34.776 33.105 36.923l4.37 0.25h410.318zM37.499 181.66c20.697 0 37.475-16.778 37.475-37.475v-44.211h-74.95v44.211c0 20.697 16.778 37.475 37.475 37.475zM37.499 302.731c20.697 0 37.475 16.778 37.475 37.475v44.211h-74.95v-44.211c0-20.697 16.778-37.475 37.475-37.475z" />
<glyph unicode="&#xe902;" glyph-name="search" horiz-adv-x="925" d="M289.891 846.364c155.91 140.382 396.101 127.794 536.482-28.116s127.794-396.101-28.116-536.482c-155.91-140.382-396.101-127.794-536.482 28.116s-127.794 396.101 28.116 536.482zM326.151 796.399c-131.292-118.216-141.893-320.482-23.677-451.775s320.482-141.893 451.775-23.677c131.292 118.216 141.893 320.482 23.677 451.775s-320.482 141.893-451.775 23.677zM431.251 689.276c-22.166 24.617-20.178 62.542 4.439 84.708s62.542 20.178 84.708-4.439c22.166-24.617 20.178-62.542-4.439-84.708s-62.542-20.178-84.708 4.439zM672.676 479.408c-22.166 24.617-20.178 62.542 4.439 84.708s62.542 20.178 84.708-4.439c22.166-24.617 20.178-62.542-4.439-84.708s-62.542-20.178-84.708 4.439zM604.431 644.698c-22.166 24.617-20.178 62.542 4.439 84.708s62.542 20.178 84.708-4.439c22.166-24.617 20.178-62.542-4.439-84.708s-62.542-20.178-84.708 4.439zM277.448 323.655l-261.65-300.994 47.498-41.289 261.65 300.994-47.498 41.289z" />
<glyph unicode="&#xe903;" glyph-name="hbullet" horiz-adv-x="647" d="M515.272 309.991h-377.263c-44.648 0-80.842-36.194-80.842-80.842v-209.035c0-44.648 36.194-80.842 80.842-80.842h377.263c44.648 0 80.842 36.194 80.842 80.842v209.035c0 44.648-36.194 80.842-80.842 80.842zM508.728 956.728h-377.263c-44.648 0-80.842-36.194-80.842-80.842v-209.035c0-44.648 36.194-80.842 80.842-80.842h377.263c44.648 0 80.842 36.194 80.842 80.842v209.035c0 44.648-36.194 80.842-80.842 80.842z" />
<glyph unicode="&#xe904;" glyph-name="vbullet" horiz-adv-x="1829" d="M1148.408 808.763v-725.802c0-60.594 49.121-109.714 109.714-109.714h409.469c60.594 0 109.714 49.121 109.714 109.714v725.802c0 60.594-49.121 109.714-109.714 109.714h-409.469c-60.594 0-109.714-49.121-109.714-109.714zM51.265 797.285v-725.802c0-60.594 49.121-109.714 109.714-109.714h409.469c60.594 0 109.714 49.121 109.714 109.714v725.802c0 60.594-49.121 109.714-109.714 109.714h-409.469c-60.594 0-109.714-49.121-109.714-109.714z" />
<glyph unicode="&#xe905;" glyph-name="barg" d="M0 32.207c16.224 330.444 95.842 561.88 238.855 694.307 164.121 155.657 415.071 233.485 752.848 233.485 13.104-342.48-55.263-596.989-205.102-763.527s-387.231-249.806-712.175-249.806c82.993 121.542 152.755 213.591 209.287 276.148s155.522 152.975 296.968 271.255c-126.806-66.083-229.064-130.621-306.774-193.617s-169.013-152.411-273.908-268.246z" />
<glyph unicode="&#xe906;" glyph-name="buy" horiz-adv-x="922" d="M921.178 722.054c0 3.834-0.844 7.669-2.531 11.29-3.374 7.243-9.912 12.142-17.082 13.633l-429.588 210.466c-6.959 3.408-15.184 3.408-22.144 0l-433.806-212.384c-8.436-4.047-13.919-12.568-14.341-22.154v-0.213c0-0.213 0-0.426 0-0.852v-532.983c0-9.799 5.483-18.746 14.341-23.006l433.806-212.384c0.211 0 0.211 0 0.422-0.213 0.633-0.213 1.265-0.426 1.898-0.852 0.211 0 0.422-0.213 0.844-0.213 0.633-0.213 1.265-0.426 1.898-0.639 0.211 0 0.422-0.213 0.633-0.213 0.633-0.213 1.476-0.213 2.109-0.426 0.211 0 0.422 0 0.633 0 0.844 0 1.898-0.213 2.742-0.213s1.898 0 2.742 0.213c0.211 0 0.422 0 0.633 0 0.633 0 1.476 0.213 2.109 0.426 0.211 0 0.422 0.213 0.633 0.213 0.633 0.213 1.265 0.426 1.898 0.639 0.211 0 0.422 0.213 0.844 0.213 0.633 0.213 1.265 0.426 1.898 0.852 0.211 0 0.211 0 0.422 0.213l435.071 213.023c8.647 4.26 14.341 13.207 14.341 23.006v531.918c-0.422 0.213-0.422 0.426-0.422 0.639zM460.8 906.105l376.232-184.265-138.556-67.954-376.232 184.265 138.556 67.954zM460.8 537.576l-376.232 184.265 179.68 87.978 376.232-184.265-179.68-87.978zM52.301 680.727l383.192-187.673v-475.68l-383.192 187.673v475.68zM486.107 17.375v475.68l179.891 88.191v-124.405c0-14.059 11.388-25.563 25.307-25.563s25.307 11.503 25.307 25.563v149.329l153.951 75.41v-475.68l-384.457-188.525z" />
<glyph unicode="&#xe907;" glyph-name="call1" horiz-adv-x="808" d="M638.801 943.422l84.492-54.643c30.724-19.87 51.594-47.464 62.117-82.305 12.978-43.637 14.802-92.556 5.668-154.093-2.34-16.049-5.19-32.019-8.573-47.974l-44.698 14.552c2.7 13.145 5.018 26.298 6.968 39.498 8.346 55.158 6.893 97.75-4.026 134.448-7.488 24.227-21.378 42.822-43.066 56.848l-84.040 54.35c-13.024 8.103-26.101 10.953-37.66 8.496-11.373-2.417-21.787-10.26-30.124-23.292-10.044-14.17-19.223-28.74-29.176-44.25-4.957-7.848-10.101-15.736-15.205-23.809l-43.793-67.157c-9.111-13.972-12.59-26.941-10.142-38.457s10.901-21.948 24.907-31.007l21.049-13.773c21.049-13.773 40.783-26.856 62.036-38.839 0.452-0.292 0.678-0.438 1.13-0.731 18.751-12.127 19.446-27.314 18.086-39.251-0.068-0.597-0.175-1.008-0.243-1.605-7.052-37.412-20.052-74.341-42.897-119.962-41.324-80.609-88.907-146.436-145.062-201.273-6.911-6.904-14.619-12.813-21.767-18.604-6.668-5.3-12.816-10.295-18.139-15.503-0.667-0.53-1.147-1.020-1.814-1.55-5.481-4.465-11.131-7.219-17.097-8.487-14.915-3.17-26.623 4.241-30.463 6.725l-84.492 54.643c-13.103 8.474-26.072 11.735-37.631 9.278-14.169-3.012-23.873-14.198-29.485-23.544l-88.654-135.706c-17.635-27.043-12.316-51.149 15.443-69.902 9.607-6.694 19.508-12.936 30.047-19.432 15.735-9.856 32.108-19.964 47.532-32.021 26.335-18.473 54.167-23.817 87.166-16.803 3.169 0.674 6.486 1.573 9.616 2.432 60.322 16.898 112.131 52.759 150.522 82.078 104.080 80.554 189.016 181.498 252.074 300.116 16.577 31.409 30.951 61.734 43.27 91.393l44.517-14.499c-13.12-31.833-28.494-64.333-46.284-97.968-66.28-124.544-155.421-230.458-264.835-315.252-41.764-31.784-98.32-70.982-166.54-90.142-4.249-1.097-8.311-2.155-12.599-3.066-46.422-9.867-87.105-1.82-124.481 24.595-0.226 0.146-0.678 0.438-0.943 0.77-13.577 10.703-28.369 19.788-43.878 29.498-10.539 6.495-21.343 13.323-31.814 20.415-48.475 32.792-59.608 85.168-28.012 133.62l88.321 135.441c14.832 23.73 35.366 38.965 59.23 44.038s49.006-0.454 72.727-15.795l80.877-52.305c5.402 4.837 11.070 9.341 16.404 13.581 6.668 5.3 12.816 10.295 18.139 15.503 52.606 51.365 97.132 113.242 136.194 188.906 19.515 39.284 31.412 71.32 37.784 102.763-20.881 12.062-40.8 25.105-60.082 37.895-6.817 4.569-13.82 9.098-20.824 13.627-24.399 15.779-40.147 36.697-45.16 60.285s0.678 49.063 16.736 73.441l43.793 67.157c5.143 7.888 9.954 15.51 14.911 23.358 9.62 15.245 19.721 30.981 29.911 45.376 15.216 22.841 35.682 37.479 59.546 42.552 23.677 5.033 48.515 0.024 72.49-14.681zM731.165 504.943c11.972-5.521 17.304-19.622 11.981-31.683l-10.949-24.809-42.347 19.932 10.46 24.641c4.972 11.713 18.497 17.177 30.21 12.206 0.217-0.092 0.432-0.187 0.646-0.286zM743.005 647.254l46.096-8.089-4.71-26.714c-2.245-12.73-14.379-21.234-27.111-19-12.719 2.232-21.22 14.352-18.988 27.070 0.001 0.006 0.002 0.013 0.003 0.019l4.71 26.714z" />
<glyph unicode="&#xe908;" glyph-name="arrow-left" horiz-adv-x="630" d="M211.755 448.216l401.272-383.093c11.049-10.523 17.127-24.593 17.127-39.595 0-15.010-6.078-29.072-17.127-39.611l-35.162-33.551c-11.032-10.556-25.778-16.367-41.493-16.367s-30.444 5.811-41.484 16.367l-477.778 456.105c-11.084 10.573-17.154 24.701-17.11 39.72-0.043 15.085 6.017 29.196 17.11 39.778l477.333 455.663c11.040 10.556 25.769 16.367 41.493 16.367 15.715 0 30.444-5.811 41.493-16.367l35.153-33.551c22.874-21.837 22.874-57.386 0-79.214l-400.827-382.651z" />
<glyph unicode="&#xe909;" glyph-name="bullets" horiz-adv-x="247" d="M246.519 74.626v-100.7c0-20.946-16.98-37.926-37.926-37.926h-170.667c-20.946 0-37.926 16.98-37.926 37.926v100.7c0 20.946 16.98 37.926 37.926 37.926h170.667c20.946 0 37.926-16.98 37.926-37.926zM246.519 480.695v-100.7c0-20.946-16.98-37.926-37.926-37.926h-170.667c-20.946 0-37.926 16.98-37.926 37.926v100.7c0 20.946 16.98 37.926 37.926 37.926h170.667c20.946 0 37.926-16.98 37.926-37.926zM246.519 922.074v-100.7c0-20.946-16.98-37.926-37.926-37.926h-170.667c-20.946 0-37.926 16.98-37.926 37.926v100.7c0 20.946 16.98 37.926 37.926 37.926h170.667c20.946 0 37.926-16.98 37.926-37.926z" />
<glyph unicode="&#xe90a;" glyph-name="call" horiz-adv-x="910" d="M163.635 291.614c28.056 36.739 68.725 42.454 105.613 14.843 28.132-21.013 56.265-42.026 84.040-63.513 7.602-5.914 13.408-6.579 20.859-0.877 14.752 10.96 30.775 20.405 44.788 32.108 65.257 55.085 117.086 121.401 161.047 194.016 21.802 36.071 40.379 74.016 51.289 115.327 2.212 8.351 0.86 13.451-6.476 18.979-28.045 20.391-55.555 41.491-83.272 62.563-38.603 29.274-44.202 69.112-14.985 108.129 16.556 22.216 33.17 44.016 49.725 66.232 17.12 22.718 34.003 45.614 51.359 68.154 28.115 36.324 68.783 42.039 105.642 14.635 28.34-20.984 55.73-42.736 84.426-63.247 26.567-18.906 42.214-44.424 49.165-75.82 11.203-51.11 5.399-101.648-5.768-151.67-22.697-103.48-66.028-198.647-122.206-288.214-75.867-121.109-172.549-222.081-291.051-301.787-53.36-35.851-109.699-65.563-173.733-78.159-44.053-8.73-84.221-2.95-120.007 27.355-24.488 20.679-51.382 38.904-76.97 58.37-37.923 28.947-43.845 69.585-15.52 107.419 33.854 45.17 67.944 90.162 102.034 135.154z" />
<glyph unicode="&#xe90b;" glyph-name="email" horiz-adv-x="1280" d="M1154.813 896h-1032.020c-19.316 0-37.252-4.075-53.809-12.226l569.818-455.090 569.818 455.090c-16.556 8.151-33.113 12.226-53.809 12.226zM677.435 322.918c-11.038-9.509-24.835-13.585-38.632-13.585s-27.594 4.075-38.632 13.585l-600.172 479.543c0-2.717 0-4.075 0-8.151v-737.654c0-66.565 55.188-120.905 122.794-120.905h1033.399c67.606 0 122.794 54.339 122.794 120.905v737.654c0 2.717 0 4.075 0 8.151l-601.551-479.543z" />
<glyph unicode="&#xe90c;" glyph-name="insta" d="M746.813 960h-469.625c-152.844 0-277.187-124.344-277.187-277.187v-469.633c0-152.836 124.344-277.18 277.187-277.18h469.633c152.836 0 277.18 124.344 277.18 277.18v469.633c0 152.844-124.344 277.187-277.187 277.187zM512 168.008c-154.391 0-279.992 125.602-279.992 279.992s125.602 279.992 279.992 279.992c154.391 0 279.992-125.602 279.992-279.992s-125.602-279.992-279.992-279.992v0zM821.961 708.506c-32.792 0-59.463 26.671-59.463 59.463s26.671 59.468 59.463 59.468c32.792 0 59.468-26.677 59.468-59.468s-26.677-59.463-59.468-59.463zM512 632.32c-101.63 0-184.32-82.684-184.32-184.32 0-101.63 82.69-184.32 184.32-184.32 101.636 0 184.32 82.69 184.32 184.32 0 101.636-82.684 184.32-184.32 184.32z" />
<glyph unicode="&#xe90d;" glyph-name="linkedin" horiz-adv-x="967" d="M17.214 627.272h214.257c9.509 0 17.214-7.097 17.214-15.85v-633.757c0-8.755-7.705-15.85-17.214-15.85h-214.257c-9.509 0-17.214 7.094-17.214 15.85v633.757c0 8.752 7.705 15.85 17.214 15.85zM124.393 960c-68.591 0-124.393-55.962-124.393-124.747 0-68.816 55.802-124.799 124.393-124.799 68.536 0 124.293 55.986 124.293 124.799 0.003 68.786-55.757 124.747-124.293 124.747zM710.66 627.272c-76.241 0-132.6-33.273-166.785-71.080v40.21c0 8.55-6.826 15.483-15.251 15.483h-181.792c-8.425 0-15.251-6.933-15.251-15.483v-619.1c0-8.553 6.826-15.486 15.251-15.486h189.411c8.425 0 15.251 6.933 15.251 15.486v306.311c0 103.22 27.617 143.432 98.493 143.432 77.19 0 83.324-64.465 83.324-148.743v-301.003c0-8.553 6.826-15.483 15.251-15.483h189.482c8.425 0 15.251 6.93 15.251 15.483v339.587c0 153.484-28.828 310.386-242.635 310.386z" />
<glyph unicode="&#xe90e;" glyph-name="location" horiz-adv-x="740" d="M369.778 960c-203.897 0-369.778-166.364-369.778-370.852 0-253.776 330.915-626.335 345.004-642.071 13.233-14.782 36.338-14.756 49.548 0 14.089 15.736 345.004 388.294 345.004 642.071 0 204.488-165.883 370.852-369.778 370.852zM369.779 391.111c-109.792 0-199.112 89.321-199.112 199.112s89.322 199.11 199.112 199.11c109.79 0 199.11-89.321 199.11-199.112s-89.32-199.11-199.11-199.11z" />
<glyph unicode="&#xe90f;" glyph-name="telegram" horiz-adv-x="1144" d="M20.215 479.936l263.709-98.345 102.072-327.996c6.531-21.007 32.24-28.772 49.304-14.832l146.996 119.737c15.408 12.545 37.356 13.17 53.458 1.49l265.128-192.333c18.254-13.258 44.116-3.263 48.693 18.777l194.221 933.48c4.998 24.075-18.678 44.16-41.621 35.294l-1082.27-417.169c-26.708-10.292-26.475-48.075 0.309-58.104zM369.546 433.942l515.386 317.17c9.263 5.683 18.792-6.831 10.838-14.203l-425.343-395.057c-14.951-13.906-24.595-32.515-27.326-52.714l-14.489-107.287c-1.919-14.325-22.058-15.747-26.014-1.883l-55.724 195.642c-6.382 22.314 2.918 46.15 22.672 58.332z" />
<glyph unicode="&#xe910;" glyph-name="whatsapp" d="M512.128 960h-0.256c-282.304 0-511.872-229.632-511.872-512 0-112 36.096-215.808 97.472-300.096l-63.808-190.208 196.8 62.912c80.96-53.632 177.536-84.608 281.664-84.608 282.304 0 511.872 229.696 511.872 512s-229.568 512-511.872 512zM810.048 236.992c-12.352-34.88-61.376-63.808-100.48-72.256-26.752-5.696-61.696-10.24-179.328 38.528-150.464 62.336-247.36 215.232-254.912 225.152-7.232 9.92-60.8 80.96-60.8 154.432s37.312 109.248 52.352 124.608c12.352 12.608 32.768 18.368 52.352 18.368 6.336 0 12.032-0.32 17.152-0.576 15.040-0.64 22.592-1.536 32.512-25.28 12.352-29.76 42.432-103.232 46.016-110.784 3.648-7.552 7.296-17.792 2.176-27.712-4.8-10.24-9.024-14.784-16.576-23.488s-14.72-15.36-22.272-24.704c-6.912-8.128-14.72-16.832-6.016-31.872 8.704-14.72 38.784-63.808 83.072-103.232 57.152-50.88 103.488-67.136 120.064-74.048 12.352-5.12 27.072-3.904 36.096 5.696 11.456 12.352 25.6 32.832 40 52.992 10.24 14.464 23.168 16.256 36.736 11.136 13.824-4.8 86.976-40.96 102.016-48.448 15.040-7.552 24.96-11.136 28.608-17.472 3.584-6.336 3.584-36.096-8.768-71.040z" />
<glyph unicode="&#xe912;" glyph-name="whatsapp1" d="M512.128 960h-0.256c-282.304 0-511.872-229.632-511.872-512 0-112 36.096-215.808 97.472-300.096l-63.808-190.208 196.8 62.912c80.96-53.632 177.536-84.608 281.664-84.608 282.304 0 511.872 229.696 511.872 512s-229.568 512-511.872 512zM810.048 236.992c-12.352-34.88-61.376-63.808-100.48-72.256-26.752-5.696-61.696-10.24-179.328 38.528-150.464 62.336-247.36 215.232-254.912 225.152-7.232 9.92-60.8 80.96-60.8 154.432s37.312 109.248 52.352 124.608c12.352 12.608 32.768 18.368 52.352 18.368 6.336 0 12.032-0.32 17.152-0.576 15.040-0.64 22.592-1.536 32.512-25.28 12.352-29.76 42.432-103.232 46.016-110.784 3.648-7.552 7.296-17.792 2.176-27.712-4.8-10.24-9.024-14.784-16.576-23.488s-14.72-15.36-22.272-24.704c-6.912-8.128-14.72-16.832-6.016-31.872 8.704-14.72 38.784-63.808 83.072-103.232 57.152-50.88 103.488-67.136 120.064-74.048 12.352-5.12 27.072-3.904 36.096 5.696 11.456 12.352 25.6 32.832 40 52.992 10.24 14.464 23.168 16.256 36.736 11.136 13.824-4.8 86.976-40.96 102.016-48.448 15.040-7.552 24.96-11.136 28.608-17.472 3.584-6.336 3.584-36.096-8.768-71.040z" />
<glyph unicode="&#xe913;" glyph-name="arrow-right" horiz-adv-x="630" d="M418.399 448.216l-401.272-383.093c-11.049-10.523-17.127-24.593-17.127-39.595 0-15.010 6.078-29.072 17.127-39.611l35.162-33.551c11.032-10.556 25.778-16.367 41.493-16.367s30.444 5.811 41.484 16.367l477.778 456.105c11.084 10.573 17.153 24.701 17.11 39.72 0.043 15.085-6.017 29.196-17.11 39.778l-477.333 455.663c-11.040 10.556-25.77 16.367-41.493 16.367-15.715 0-30.444-5.811-41.493-16.367l-35.153-33.551c-22.874-21.837-22.874-57.386 0-79.214l400.827-382.651z" />
<glyph unicode="&#xe914;" glyph-name="UP" horiz-adv-x="1463" d="M682.392 567.796l486.467-496.813c13.363-13.68 31.229-21.205 50.279-21.205 19.061 0 36.916 7.525 50.3 21.205l42.604 43.533c13.405 13.658 20.784 31.916 20.784 51.372s-7.379 37.692-20.784 51.361l-579.18 591.534c-13.426 13.723-31.366 21.238-50.438 21.184-19.156 0.054-37.075-7.45-50.512-21.184l-578.62-590.984c-13.405-13.669-20.784-31.905-20.784-51.372 0-19.456 7.379-37.692 20.784-51.372l42.604-43.523c27.73-28.32 72.871-28.32 100.59 0l485.906 496.262z" />
<glyph unicode="&#xe917;" glyph-name="down" horiz-adv-x="1463" d="M682.392 328.204l486.467 496.813c13.363 13.68 31.229 21.205 50.279 21.205 19.061 0 36.916-7.525 50.3-21.205l42.604-43.533c13.405-13.658 20.784-31.916 20.784-51.372s-7.379-37.692-20.784-51.361l-579.18-591.534c-13.426-13.723-31.366-21.238-50.438-21.184-19.156-0.054-37.075 7.45-50.512 21.184l-578.62 590.984c-13.405 13.669-20.784 31.905-20.784 51.372 0 19.456 7.379 37.692 20.784 51.372l42.604 43.523c27.73 28.32 72.871 28.32 100.59 0l485.906-496.262z" />
</font>
</defs>
</svg>
